<?xml version="1.0" encoding="utf-8"?>
<svg version="1.1" id="Layer_1" xmlns="http://www.w3.org/2000/svg" xmlns:xlink="http://www.w3.org/1999/xlink" x="0px" y="0px"
	 viewBox="0 0 260 134.9" enable-background="new 0 0 260 134.9" xml:space="preserve">
<g>
	<g>
		<g>
			<path fill="#F2674A" d="M42.2,9.6c0.3-4.7-2.7-9.3-7.4-9.6c-0.5,0-3,0-3.5,0.1c-4.7,0.4-7,4.8-6.8,9.5c0.3,4.7,3.2,8,8.7,8.1
				C37.9,18,41.9,14.3,42.2,9.6 M45.5,35.4c10.6-2.2,10.7,2.3,15,3.3c4.7,1.1-12.4-19-25.2-19c-3,0-3.6,0-5.1,0.1
				c-14.7,1-31.3,22.1-26.6,20.9c4.4-1,6.2-9.6,16.7-7.5c9.9,2.1,5.7,14.9-4.7,27.2c-4.2,5-13.7,12.1-15.1,13.9
				C-1,76.2,1.9,77.8,4,76.9c16.5-5.8,24-17,28.7-20.3c4.7,3.3,11,14.7,27.5,20.4c3.8,0.8,5.9-1.4,4.8-2.7
				C45.2,60.3,31.6,38.3,45.5,35.4"/>
		</g>
		<path fill="none" d="M30.1,19.9c-14.7,1-31.3,22.1-26.6,20.9c4.4-1,6.2-9.6,16.7-7.5c9.9,2.1,5.7,14.9-4.7,27.2
			c-4.2,5-13.7,12.1-15.1,13.9C0.1,74.7,0,75,0,75.3v0c0,1.4,2.3,2.3,4,1.6c16.5-5.8,24-17,28.7-20.3c4.7,3.3,11,14.7,27.5,20.4
			c3.8,0.8,5.9-1.4,4.8-2.7c-19.9-14.1-33.6-36.1-19.6-39c10.6-2.2,10.7,2.3,15,3.3c4.7,1.1-12.4-19-25.2-19
			C32.3,19.7,31.6,19.7,30.1,19.9 M34.3,0c-0.9,0-2.6,0-3,0.1c-4.7,0.4-7,4.8-6.8,9.5c0.3,4.7,3.2,8,8.7,8.1c4.7,0.2,8.7-3.4,9-8.1
			c0.3-4.7-2.7-9.3-7.4-9.6c-0.1,0-0.2,0-0.3,0H34.3z"/>
		<path fill="#F2674A" d="M88.2,23.3c-19,1.7-32.8,15.3-26.9,15.4c4.3-0.8,9.9-8.7,20.1-6c13.5,3.5-5.3,29.4-21,39.2
			c-2.7,1.8-1.4,5.7,2.4,5.2c17.4-3.1,25-21.8,30.5-21.8c4.6,0,10.6,18.4,29.8,24c2.2,0.7,3.9-3.8,2.8-5
			C105.6,61.6,93,36.3,106.5,32.8c5.2-1.4,9.2,0.8,12.5,2.9c3.2,2.1,5.6,4.2,7.7,3c3.9,0-9-13.6-28.2-15.5c0,0-1.1-0.1-3.3-0.1
			C93.5,23,91.1,23.1,88.2,23.3 M85.6,9.7c0,4.6,3.7,8.4,8.4,8.4c4.6,0,7.1-3.9,8.4-8.4c1.5-5.2-3.7-8.4-8.4-8.4
			C89.3,1.3,85.6,5.1,85.6,9.7"/>
		<path fill="#7BCDC8" d="M154.3,22c-19.2,1.9-32.9,17.8-28.3,17c4.3-0.8,9.9-8.5,20.2-5.9c13.5,3.5-4.4,28.9-24.6,41.7
			c-1.3,1.5-0.3,5.9,4,4.4c17.2-9.1,27.7-21.6,32.8-23.3c5.1,1.7,16,14.4,33.1,23.5c5.5,2.7,6.4-2.2,5-3.7
			c-20.2-12.8-39.5-39.1-26-42.7c10.2-2.7,15.9,5.1,20.2,5.9c6.4,1-9.1-15.1-28.3-17c0,0-0.9-0.2-3.1-0.2c-0.3,0-0.6,0-1,0
			c-0.4,0-0.7,0-1,0C155.2,21.9,154.3,22,154.3,22 M158.3,1.7c-0.1,0-0.3,0-0.4,0c0,0,0,0-0.1,0v0.1c-4.2,0.4-7.6,4-7.6,8.3
			s3.1,9.2,7.6,8.3v0.1c0,0,0,0,0.1,0c0.1,0,0.2,0,0.4,0c0.1,0,0.2,0,0.4,0c0,0,0,0,0.1,0l0.8,0.2c4.2-0.4,6.7-4.2,6.7-8.6
			s-3.3-7.9-7.6-8.3V1.6c0,0,0,0-0.1,0C158.6,1.6,158.4,1.7,158.3,1.7"/>
		<path fill="none" d="M213,14.5c-0.3-4.6,4.6-8.8,9.2-9.1c4.6-0.3,8.6,3.2,8.9,7.9c0.3,4.6-3.3,8.1-7.8,8.9
			C218.4,23.1,213.3,19.1,213,14.5 M218.6,26.2c6.8-1,9.2-0.7,9.2-0.7c19.3,0.7,35.4,15.9,30.7,15.3c-4.4-0.5-11.9-8-22-4.7
			c-13.4,4.4,16.9,35.4,22.9,38.7c1.2,1.2,0.1,2.9-2.1,2.3c-19.5-4.4-28-17.8-32.6-17.5c-5.4,0.3-11.5,16.4-28.8,20.6
			c-2.3,0.6-3.6,0.1-2.5-1.3c5.6-4,29.5-40.9,19.1-43c-10.4-2-16.6,2.1-20.8,3.1C185.3,40,199.8,29.1,218.6,26.2"/>
		<path fill="#F2674A" d="M218.6,26.2C199.8,29.1,185.3,40,191.8,39c4.2-1.1,10.5-5.2,20.8-3.1c10.4,2.1-13.6,39-19.1,43
			c-1.1,1.3,0.2,1.9,2.5,1.3c17.2-4.2,23.3-20.2,28.8-20.6c4.6-0.3,13.1,13.1,32.6,17.5c2.2,0.6,3.4-1.1,2.1-2.3
			c-6-3.3-36.3-34.3-22.9-38.7c10-3.3,17.6,4.2,22,4.7c4.7,0.6-11.5-14.6-30.7-15.3c0,0-0.3,0-1.1,0
			C225.3,25.4,222.8,25.6,218.6,26.2 M222.1,5.4c-4.6,0.3-9.4,4.4-9.2,9.1c0.3,4.6,5.4,8.6,10.2,7.7c4.5-0.8,8.1-4.3,7.8-8.9
			c-0.3-4.5-4-7.9-8.3-7.9C222.5,5.4,222.3,5.4,222.1,5.4"/>
	</g>
	<g>
		<g>
			<path fill="#7BCDC8" d="M82.8,122.4c0,0.1,0,0.2-0.1,0.3c-0.1,0.1-0.2,0.1-0.3,0.1h-9.2c-0.1,0-0.2,0-0.3-0.1
				c-0.1-0.1-0.1-0.2-0.1-0.3v-8.5c0-0.1,0-0.2,0.1-0.3c0.1-0.1,0.2-0.1,0.3-0.1h8.6v-2h-8.6c-0.1,0-0.2-0.1-0.3-0.1
				c-0.1-0.1-0.1-0.2-0.1-0.3v-8.3c0-0.1,0-0.2,0.1-0.3c0.1-0.1,0.2-0.1,0.3-0.1h8.6c0.1,0,0.2,0.1,0.3,0.1c0.1,0.1,0.1,0.2,0.1,0.3
				v2.5h2.2v-5H66.7v1.9h2.7c0.1,0,0.3,0.1,0.3,0.1c0.1,0.1,0.1,0.2,0.1,0.3v20.1c0,0.1-0.1,0.2-0.1,0.3c-0.1,0.1-0.2,0.1-0.3,0.1
				h-2.7v1.9H85v-5.1h-2.2V122.4z"/>
			<path fill="#7BCDC8" d="M103.6,102h1.9c0.2,0,0.3,0.1,0.4,0.3c0.1,0.2,0.1,0.3,0,0.5l-5.6,8.1c-0.1,0.1-0.2,0.2-0.4,0.2h-3.3
				c-0.1,0-0.2-0.1-0.3-0.1c-0.1-0.1-0.1-0.2-0.1-0.3v-8.1c0-0.1,0.1-0.2,0.1-0.3c0.1-0.1,0.2-0.1,0.3-0.1h2.3v-1.9h-8.7v1.9h2.7
				c0.1,0,0.3,0.1,0.3,0.1c0.1,0.1,0.1,0.2,0.1,0.3v20.1c0,0.1,0,0.2-0.1,0.3c-0.1,0.1-0.2,0.1-0.3,0.1h-2.7v1.9h9.1v-1.9h-2.7
				c-0.1,0-0.2-0.1-0.3-0.1c-0.1-0.1-0.1-0.2-0.1-0.3v-9c0-0.1,0.1-0.2,0.1-0.3c0.1-0.1,0.2-0.1,0.3-0.1h2.1c0.6,0,1,0.1,1.5,0.3
				c0.4,0.2,0.7,0.5,1,1l0,0l5,8.9c0.4,0.7,0.7,1.1,1.1,1.3c0.4,0.2,1,0.4,2.1,0.4h2.1v-1.9h-0.7c-0.5,0-0.9-0.1-1.3-0.3
				c-0.4-0.2-0.7-0.5-0.9-0.9l-4.6-8.1l0,0c-0.6-1.1-1.2-1.5-1.2-1.5c-0.2-0.1-0.3-0.2-0.3-0.4v-0.1c0-0.1,0-0.2,0.1-0.3l6.7-9.3
				c0.1-0.1,0.2-0.2,0.4-0.2h2v-1.9h-7.8V102z"/>
			<path fill="#7BCDC8" d="M52.2,102H55c0.1,0,0.2,0.1,0.3,0.1c0.1,0.1,0.2,0.2,0.2,0.3v8.6c0,0.1-0.1,0.2-0.2,0.3
				c-0.1,0.1-0.2,0.1-0.3,0.1H41.7c-0.1,0-0.2,0-0.3-0.1c-0.1-0.1-0.1-0.2-0.1-0.3v-8.6c0-0.1,0.1-0.2,0.1-0.3
				c0.1-0.1,0.2-0.1,0.3-0.1h2.8v-1.9h-9.2v1.9H38c0.1,0,0.2,0.1,0.3,0.1c0.1,0.1,0.1,0.2,0.1,0.3v20.1c0,0.1,0,0.2-0.1,0.3
				c-0.1,0.1-0.2,0.1-0.3,0.1h-2.7v1.9h9.2v-1.9h-2.8c-0.1,0-0.2-0.1-0.3-0.1c-0.1-0.1-0.1-0.2-0.1-0.3v-8.5c0-0.1,0.1-0.2,0.1-0.3
				c0.1-0.1,0.2-0.1,0.3-0.1H55c0.1,0,0.2,0.1,0.3,0.1c0.1,0.1,0.2,0.2,0.2,0.3v8.5c0,0.1-0.1,0.2-0.2,0.3c-0.1,0.1-0.2,0.1-0.3,0.1
				h-2.8v1.9h9.2v-1.9h-2.7c-0.1,0-0.2-0.1-0.3-0.1c-0.1-0.1-0.1-0.2-0.1-0.3v-20.1c0-0.1,0-0.2,0.1-0.3c0.1-0.1,0.2-0.1,0.3-0.1
				h2.7v-1.9h-9.2V102z"/>
			<path fill="#7BCDC8" d="M27.9,113.7c-1.3-1.1-3.2-1.8-5.1-2.5c-1.4-0.6-2.8-1.1-3.9-1.8c-1.1-0.7-1.9-1.8-1.9-3.4
				c0-1.3,0.6-2.4,1.5-3c0.9-0.7,2.2-1,3.5-1c1.7,0,3.4,0.4,4.4,1.5c0.3,0.3,0.5,0.8,0.5,1.3v1.3h2.5v-2.6c0-0.6-0.2-1.1-0.6-1.6
				c-0.4-0.5-0.9-0.9-1.6-1.2c-1.4-0.7-3.3-1-5.1-1c-2.1,0-4.1,0.5-5.5,1.5c-1.4,1.1-2.3,2.6-2.3,4.9c0,2.2,0.8,3.5,2,4.5
				c1.2,1,2.9,1.7,4.6,2.3c1.6,0.6,3.1,1.2,4.4,2c1.2,0.8,2.1,2,2.1,3.7c0,1.4-0.6,2.6-1.6,3.3c-1,0.7-2.4,1.1-3.9,1.1
				c-1.4,0-2.8-0.3-3.8-0.9c-1-0.6-1.8-1.5-1.8-2.6v-1.4h-2.4v2.2c0,1.6,1,2.8,2.5,3.7c1.5,0.9,3.6,1.3,5.5,1.3
				c2.3,0,4.4-0.6,5.9-1.8c1.5-1.2,2.4-2.9,2.4-5.2C30.1,116.1,29.2,114.8,27.9,113.7"/>
			<path fill="#7BCDC8" d="M155.3,122.4c0,0.1-0.1,0.2-0.1,0.3c-0.1,0.1-0.2,0.1-0.3,0.1h-9c-0.1,0-0.3,0-0.3-0.1
				c-0.1-0.1-0.2-0.2-0.2-0.3v-19.8c0-0.1,0.1-0.2,0.2-0.3c0.1-0.1,0.2-0.1,0.3-0.1h2.8v-2.1h-9.2v2.1h2.7c0.1,0,0.2,0.1,0.3,0.1
				c0.1,0.1,0.1,0.2,0.1,0.3v19.9c0,0.1,0,0.2-0.1,0.3c-0.1,0.1-0.2,0.1-0.3,0.1h-2.7v1.9h18.1v-6.2h-2.3V122.4z"/>
			<path fill="#7BCDC8" d="M132,122.4c0,0.1-0.1,0.2-0.1,0.3c-0.1,0.1-0.2,0.1-0.3,0.1h-9.2c-0.1,0-0.2,0-0.3-0.1
				c-0.1-0.1-0.1-0.2-0.1-0.3v-8.5c0-0.1,0.1-0.2,0.1-0.3c0.1-0.1,0.2-0.1,0.3-0.1h8.6v-2h-8.6c-0.1,0-0.2-0.1-0.3-0.1
				c-0.1-0.1-0.1-0.2-0.1-0.3v-8.3c0-0.1,0.1-0.2,0.1-0.3c0.1-0.1,0.2-0.1,0.3-0.1h8.6c0.1,0,0.2,0.1,0.3,0.1
				c0.1,0.1,0.1,0.2,0.1,0.3v2.5h2.2v-5h-17.7v1.9h2.7c0.1,0,0.3,0.1,0.3,0.1c0.1,0.1,0.1,0.2,0.1,0.3v20.1c0,0.1-0.1,0.2-0.1,0.3
				c-0.1,0.1-0.2,0.1-0.3,0.1h-2.7v1.9h18.3v-5.1H132V122.4z"/>
			<path fill="#F2674A" d="M240.9,103.9h2.1c0.1,0,0.2,0,0.3,0.1c0.1,0.1,0.1,0.2,0.1,0.3v10.2c0,3.3-1,5.7-2.8,7.1
				c-1.8,1.4-4.3,2-7.1,2c-0.2,0-0.5,0-0.8,0c-0.2,0-0.3-0.1-0.4-0.3l0-0.1c0-0.2,0-0.3,0.2-0.4c0.9-0.6,1.5-1.4,2-2.6
				c0.5-1.2,0.7-2.7,0.7-4.8v-13.3h-5.2v2h1.9c0.1,0,0.2,0,0.3,0.1c0.1,0.1,0.1,0.2,0.1,0.3v13.1c0,2.5-0.9,4.1-2.2,5
				c-1.2,0.9-2.6,1.2-3.6,1.2h-2.2c-0.2,0-0.4-0.2-0.4-0.4l0-21.2h-5.6v2h2.3c0.1,0,0.2,0,0.3,0.1c0.1,0.1,0.1,0.2,0.1,0.3v21h13.8
				c3.3,0,6.2-0.7,8.3-2.5c2-1.8,3.3-4.7,3.3-9.2v-11.8h-5.4V103.9z"/>
			<path fill="#F2674A" d="M188.6,106.6"/>
			<path fill="#F2674A" d="M178.2,105.9c0-1-0.1-2.1-0.2-3c-0.1-0.4-0.1-0.8-0.1-1.1h-13.2c-0.1,0-0.2,0-0.3-0.1
				c-0.1-0.1-0.1-0.2-0.1-0.3v-4.6h-2.9v7.1h13.1c0.2,0,0.3,0.1,0.4,0.3c0,0.1,0.3,0.9,0.3,3.2c0,1.7-0.6,3-1.4,4.1
				c-0.8,1.1-1.9,1.9-2.9,2.9c-2,1.9-4,4.1-4,9.3c0,0.2,0,0.4,0,0.6c0,0.4,0.1,0.7,0.1,1c0,0,0,0,0,0.1h5.9v-2h-3.1
				c-0.2,0-0.4-0.2-0.4-0.4c0,0,0-0.1,0-0.1c0-2,0.5-3.4,1.4-4.6c0.8-1.1,1.9-2,3-2.9c2.1-1.8,4.2-3.8,4.5-8.8
				C178.2,106.4,178.2,106.2,178.2,105.9"/>
		</g>
		<polygon fill="#F2674A" points="182.9,98.1 181.9,108.4 182.8,108.6 184.9,101.9 185.1,98.8 184.5,98.1 		"/>
		<polygon fill="#F2674A" points="187.9,98.1 186.9,108.4 187.9,108.6 189.9,101.9 190.1,98.8 189.6,98.1 		"/>
		<g>
			<path fill="#F2674A" d="M213.3,101.9h-19.8v2h3c0.1,0,0.3,0.1,0.3,0.2c0.1,0.1,0.1,0.3,0,0.4c0,0,0,0-0.1,0.1
				c0,0.1-0.1,0.2-0.2,0.4c-0.1,0.3-0.3,0.9-0.5,1.5c-0.4,1.3-0.8,3.2-0.8,5.6l0,22.8h5.2v-2.1h-2.1c-0.1,0-0.2,0-0.3-0.1
				c-0.1-0.1-0.1-0.2-0.1-0.3v-20.6c0-5.1,1.2-7.7,1.2-7.7c0.1-0.1,0.2-0.2,0.4-0.2H210c0.2,0,0.4,0.1,0.4,0.3c0,0,0.2,1,0.3,3.3v0
				c0,0.1,0,0.1,0,0.2c0,3.6-1.9,5.5-3.7,7.4c-1.8,1.9-3.5,3.8-3.5,7.8c0,0.8,0.1,1.6,0.2,2.6h5.7v-1.9h-3c-0.2,0-0.4-0.2-0.4-0.4
				c0-0.3,0-0.5,0-0.8c0-1.8,0.5-3.1,1.3-4.2c0.8-1.1,1.7-1.9,2.7-2.8c1.9-1.8,3.7-3.8,3.7-8.7v0c0-0.2,0-0.5,0-0.7
				c0-1-0.1-2.1-0.2-2.9C213.4,102.5,213.3,102.2,213.3,101.9"/>
		</g>
	</g>
</g>
</svg>